<svg 
  version="1.1" 
  xmlns="http://www.w3.org/2000/svg" 
  width="20" 
  height="20">
  <circle cx="10" cy="9" r="7" stroke="#534c7d" stroke-width="1.5" fill="none" />
  <path d="M10 3.5c-2.21 0-4 1.79-4 4 0 2.63 3.53 6.78 3.72 6.97.08.08.21.08.29 0 .19-.19 3.72-4.34 3.72-6.97 0-2.21-1.79-4-4-4zm0 5.75c-.69 0-1.25-.56-1.25-1.25s.56-1.25 1.25-1.25 1.25.56 1.25 1.25-.56 1.25-1.25 1.25z" fill="#f11" stroke="#fff" stroke-width=".1"/>
  <line x1="5" x2="16" y1="13" y2="6" stroke="#534c7d" stroke-width="1.5"/>
</svg>

